<svg preserveAspectRatio="none" overflow="visible" style="display: block;" width="144.167" height="204.8" viewBox="0 0 144.167 204.8" fill="none" xmlns="http://www.w3.org/2000/svg">
<g id="Vector">
<path d="M41.9944 100.074C38.9358 98.6336 35.9765 97.1101 33.1564 95.4759C35.2164 98.1438 38.3908 99.9046 41.9944 100.074Z" fill="#404179"/>
<path fill-rule="evenodd" clip-rule="evenodd" d="M23.7301 43.9222C23.7301 51.9435 26.3008 58.3895 30.6911 63.7675C40.4161 75.6804 59.0691 82.353 78.4858 89.2989C110.301 100.68 144.167 112.794 144.167 149.897C144.167 156.561 143.05 162.82 140.912 168.555C140.499 169.666 140.046 170.757 139.557 171.827C130.363 191.921 107.921 204.8 76.8038 204.8C35.4675 204.8 9.69616 181.562 9.69616 181.562C9.69616 181.562 22.4236 181.562 30.6911 181.562C34.726 181.562 46.9501 191.665 46.9501 191.665C56.8537 198.216 67.7599 201.736 79.6105 201.736C101.808 201.736 119.022 189.696 124.481 171.827C125.674 167.923 126.305 163.741 126.305 159.346C126.305 148.281 121.955 140.029 114.909 133.452C104.148 123.409 87.0987 117.273 69.649 110.994L69.6487 110.993C60.2392 107.607 50.7134 104.179 41.9944 100.074C38.9358 98.6336 35.9765 97.1101 33.1564 95.4759C17.318 86.2979 5.86873 73.6267 5.86873 52.6045C5.86873 46.7642 6.93269 41.2118 8.93614 36.0549C9.647 34.2252 10.4761 32.4453 11.418 30.72C21.5174 12.2197 44.5771 0 73.7418 0C88.3363 0 104.665 5.20683 118.377 11.1576C126.412 14.6446 131.875 22.1227 133.55 30.72L134.867 37.4764L140.467 66.2193C140.679 67.3089 139.98 68.368 138.895 68.6007C137.952 68.8029 136.998 68.3163 136.602 67.4373C134.306 62.3368 131.952 57.4563 129.524 52.8278C125.209 44.6026 120.662 37.1734 115.802 30.72C102.89 13.5768 87.7642 3.31969 68.8937 3.31969C48.4688 3.31969 32.0506 14.8685 26.1177 30.72C24.5647 34.8692 23.7301 39.3133 23.7301 43.9222ZM26.2375 171.827C22.556 167.045 19.0777 161.745 15.8076 155.971C14.865 161.08 11.5219 165.367 7.04606 167.603L7.84797 171.827H26.2375Z" fill="#404179"/>
<path fill-rule="evenodd" clip-rule="evenodd" d="M129.524 68.9476V153.025C129.524 160.312 134.374 166.509 140.912 168.555C140.499 169.666 140.046 170.757 139.557 171.827H124.481C125.674 167.923 126.305 163.741 126.305 159.346C126.305 148.281 121.955 140.029 114.909 133.452V114.508C114.909 107.936 109.611 102.643 103.034 102.643H42.5656C35.989 102.643 30.6911 107.936 30.6911 114.508V153.025C30.6911 161.54 37.3135 168.566 45.6724 169.222C46.376 169.277 46.9501 169.844 46.9501 170.549C46.9501 171.255 46.378 171.827 45.6722 171.827H26.2375H7.84797H1.27782C0.572098 171.827 0 171.255 0 170.549C0 169.844 0.573106 169.277 1.2765 169.22C3.32477 169.053 5.27417 168.489 7.04606 167.603C11.5219 165.367 14.865 161.08 15.8076 155.971C15.984 155.015 16.0763 154.031 16.0763 153.025V49.5221C16.0763 43.9299 13.2201 38.9799 8.93614 36.0549C9.647 34.2252 10.4761 32.4453 11.418 30.72H26.1177C24.5647 34.8692 23.7301 39.3133 23.7301 43.9222C23.7301 51.9435 26.3008 58.3895 30.6911 63.7675V88.2216C30.6911 90.9579 31.6096 93.4726 33.1564 95.4759C35.2164 98.1438 38.3908 99.9046 41.9944 100.074C42.1837 100.083 42.3741 100.087 42.5656 100.087H103.034C109.611 100.087 114.909 94.7933 114.909 88.2216V49.5221C114.909 49.2262 114.901 48.9321 114.885 48.64C116.347 49.2133 117.59 50.2356 118.435 51.5599L129.524 68.9476ZM129.524 52.8278V49.5221C129.524 44.7545 131.6 40.4536 134.867 37.4764L133.55 30.72H115.802C120.662 37.1734 125.209 44.6026 129.524 52.8278Z" fill="#404179"/>
</g>
</svg>
